<?xml version="1.0" standalone="no"?>
<!DOCTYPE svg PUBLIC "-//W3C//DTD SVG 20010904//EN"
 "http://www.w3.org/TR/2001/REC-SVG-20010904/DTD/svg10.dtd">
<svg version="1.0" xmlns="http://www.w3.org/2000/svg"
 width="311.000000pt" height="311.000000pt" viewBox="0 0 311.000000 311.000000"
 preserveAspectRatio="xMidYMid meet">
<metadata>
Created by potrace 1.14, written by Peter Selinger 2001-2017
</metadata>
<g transform="translate(0.000000,311.000000) scale(0.100000,-0.100000)"
fill="#000000" stroke="none">
<path d="M1946 2805 c-14 -8 -37 -26 -51 -42 -56 -64 -155 -303 -185 -448 -11
-51 -14 -56 -33 -51 -40 12 -192 45 -242 53 -95 15 -334 8 -405 -11 -175 -47
-255 -150 -225 -286 10 -47 30 -85 76 -147 l39 -52 -28 -48 c-49 -83 -102
-219 -134 -341 -28 -108 -31 -130 -31 -292 -1 -151 2 -186 22 -259 80 -300
266 -476 509 -486 188 -7 365 74 532 244 178 180 298 420 345 690 8 48 8 47
70 55 114 13 220 71 263 145 65 112 5 262 -165 411 -71 62 -227 168 -260 176
-13 4 -23 9 -23 13 0 4 -23 15 -51 26 -28 11 -53 23 -55 27 -3 4 10 52 29 105
46 131 58 177 75 309 15 109 0 205 -33 217 -7 3 -24 -1 -39 -8z"/>
</g>
</svg>
